<?xml version="1.0" standalone="no"?>
<!DOCTYPE svg PUBLIC "-//W3C//DTD SVG 20010904//EN"
 "http://www.w3.org/TR/2001/REC-SVG-20010904/DTD/svg10.dtd">
<svg version="1.0" xmlns="http://www.w3.org/2000/svg"
 width="1444.000000pt" height="1376.000000pt" viewBox="0 0 1444.000000 1376.000000"
 preserveAspectRatio="xMidYMid meet">

<g transform="translate(0.000000,1376.000000) scale(0.100000,-0.100000)"
fill="#fff" stroke="none">
<path d="M5612 12812 c-16 -2 -21 -9 -18 -20 10 -35 58 -228 63 -252 5 -25 2
-26 -79 -39 -179 -28 -163 -23 -160 -56 2 -17 6 -33 10 -37 4 -3 45 3 92 13
47 11 101 22 121 25 l35 6 23 -88 c13 -49 26 -102 28 -119 8 -54 9 -55 43 -43
18 6 34 16 36 23 3 7 -9 60 -25 118 -17 58 -31 112 -31 120 0 18 6 20 120 42
116 22 133 30 125 58 -4 12 -10 25 -14 29 -4 4 -58 -6 -120 -23 -118 -31 -141
-32 -141 -2 0 10 -12 67 -27 126 -27 112 -37 126 -81 119z"/>
<path d="M8712 12015 c-176 -90 -175 -349 2 -434 90 -44 210 -20 277 56 45 51
61 97 62 174 1 58 -3 73 -27 108 -15 22 -53 57 -83 78 -45 31 -64 38 -116 41
-52 3 -71 -1 -115 -23z m170 -61 c9 -3 35 -25 57 -49 35 -38 41 -51 41 -87 0
-66 -16 -108 -57 -150 -65 -67 -160 -62 -227 12 -77 86 -52 214 54 268 43 21
70 22 132 6z"/>
<path d="M11330 11321 l-24 -19 23 -127 c13 -69 21 -128 18 -131 -9 -9 -144
-34 -187 -34 -61 0 -73 -10 -61 -43 12 -32 25 -33 161 -12 52 8 98 11 102 7 8
-8 38 -176 38 -214 0 -33 12 -41 50 -33 38 8 38 23 5 147 -35 130 -36 125 36
133 34 4 89 15 123 24 60 16 61 17 64 55 3 36 2 38 -20 32 -70 -22 -167 -45
-198 -48 l-35 -3 -17 69 c-9 39 -20 103 -24 143 -7 78 -13 85 -54 54z"/>
<path d="M2890 11121 c-139 -44 -209 -180 -169 -326 7 -26 28 -57 59 -87 39
-38 59 -48 106 -58 183 -38 358 152 286 311 -49 109 -191 189 -282 160z m131
-97 c39 -19 77 -69 90 -116 30 -113 -112 -237 -220 -192 -70 29 -111 86 -111
154 0 73 34 126 105 163 33 17 92 14 136 -9z"/>
<path d="M6332 10373 c-61 -30 -112 -118 -112 -193 0 -79 40 -132 134 -176 34
-17 36 -20 36 -68 1 -100 11 -291 15 -304 3 -8 -30 -48 -73 -90 -268 -264
-430 -555 -501 -902 -45 -214 -38 -519 15 -730 42 -164 122 -350 205 -472 22
-32 39 -63 39 -69 0 -6 -16 -37 -35 -68 -75 -125 -118 -322 -113 -529 l2 -93
-295 -295 c-223 -224 -308 -302 -352 -326 -73 -39 -175 -147 -213 -224 -27
-55 -29 -67 -29 -179 0 -111 2 -124 28 -177 41 -83 129 -168 221 -214 64 -31
90 -38 155 -42 180 -10 304 62 433 251 21 31 42 57 47 57 4 0 8 -39 9 -87 2
-100 23 -232 46 -287 8 -20 40 -79 71 -131 48 -82 63 -99 123 -139 81 -55 164
-86 227 -86 l45 0 1 -137 c5 -1121 9 -1528 18 -1579 12 -80 41 -135 100 -194
68 -68 161 -110 242 -110 178 0 308 81 357 221 37 108 42 212 39 901 l-2 658
147 -1 c81 0 163 3 184 7 26 5 39 3 45 -7 5 -8 6 -317 2 -704 -6 -739 -4 -795
41 -883 33 -63 109 -135 175 -166 77 -35 145 -42 233 -22 143 32 228 105 276
238 l27 73 -3 838 c-3 637 0 842 9 853 6 8 23 14 37 14 14 0 60 17 101 37 97
48 202 150 249 243 56 111 64 157 67 353 1 98 5 180 8 183 9 10 53 -25 68 -54
102 -200 199 -289 363 -337 188 -55 385 44 483 242 37 75 38 79 38 188 0 108
-1 113 -37 187 -45 90 -92 139 -173 180 -50 25 -119 89 -401 372 l-342 341 -5
150 c-8 213 -40 325 -115 407 l-25 28 50 82 c208 341 292 678 261 1043 -10
120 -28 212 -68 351 -99 340 -303 630 -598 850 -98 73 -345 201 -449 233 -186
56 -246 65 -478 65 -195 1 -231 -2 -320 -22 -202 -46 -332 -99 -481 -194 -114
-74 -110 -75 -117 39 -4 54 -7 126 -7 159 0 58 2 62 28 73 41 17 92 69 113
115 43 95 8 187 -101 259 -32 22 -124 22 -168 0z m143 -72 c46 -21 70 -46 78
-82 10 -39 -12 -100 -45 -131 -25 -24 -39 -28 -85 -28 -51 0 -58 3 -94 39 -37
36 -44 58 -39 106 4 41 32 77 73 96 52 23 62 23 112 0z m1146 -436 c308 -53
574 -183 775 -377 277 -267 411 -512 482 -878 39 -202 43 -315 17 -506 -47
-338 -174 -620 -389 -865 -194 -221 -452 -375 -775 -461 -110 -30 -126 -31
-306 -32 -161 0 -207 3 -305 23 -196 40 -417 128 -535 212 -26 19 -67 48 -90
64 -74 52 -214 190 -307 303 -69 84 -186 313 -234 458 -95 288 -103 622 -23
937 60 239 222 525 395 701 227 229 461 346 834 416 121 23 346 26 461 5z
m-1424 -2627 c11 -18 45 -61 77 -96 50 -57 55 -65 44 -85 -14 -27 -222 -242
-262 -269 -23 -17 -30 -18 -37 -7 -12 20 -2 210 17 288 47 204 104 264 161
169z m2491 -40 c12 -31 30 -102 42 -158 28 -144 26 -210 -7 -210 -13 0 -253
240 -261 261 -2 5 38 51 89 104 104 107 99 107 137 3z m222 -649 c267 -270
489 -502 494 -515 6 -13 13 -24 18 -24 4 0 8 -11 8 -24 0 -14 5 -37 10 -52 14
-35 -2 -119 -34 -189 -65 -143 -239 -225 -387 -182 -76 23 -125 58 -217 159
-78 86 -79 87 -81 145 -13 343 -31 470 -87 610 -59 147 -100 215 -215 354 -60
74 -107 139 -106 144 5 14 79 64 97 65 8 0 233 -221 500 -491z m-2456 465 c9
-8 16 -19 16 -23 0 -25 -39 -92 -99 -172 -38 -50 -91 -137 -119 -193 -104
-213 -136 -350 -151 -643 l-8 -162 -57 -68 c-104 -124 -221 -203 -298 -203
-107 1 -263 88 -314 176 -35 60 -56 147 -48 204 16 108 24 117 500 591 424
420 520 509 550 509 7 0 20 -7 28 -16z m1858 -131 c17 -27 59 -84 92 -128 57
-77 179 -312 210 -405 8 -25 17 -74 21 -110 4 -36 8 -81 10 -100 2 -19 7 -83
10 -142 4 -58 8 -114 8 -123 2 -19 -25 -29 -343 -125 -309 -93 -492 -120 -856
-127 -435 -9 -668 27 -1070 163 -89 29 -171 54 -182 54 -51 0 -52 4 -47 134 6
156 12 210 36 328 34 163 104 315 208 448 36 46 78 101 94 122 32 45 53 47
110 11 107 -68 322 -147 495 -184 93 -19 125 -21 310 -16 218 5 296 18 457 72
73 24 222 93 314 145 30 16 62 30 72 30 10 0 32 -20 51 -47z m-2998 -935 c3
-18 7 -67 9 -108 5 -93 28 -141 98 -204 102 -92 213 -136 342 -136 l68 0 -17
-32 c-27 -52 -120 -137 -181 -166 -48 -23 -71 -27 -139 -27 -73 1 -89 4 -157
38 -135 67 -217 186 -217 317 0 130 32 218 109 300 56 59 78 64 85 18z m4258
11 c50 -22 114 -156 128 -266 17 -134 -21 -236 -122 -327 -32 -29 -83 -65
-114 -80 -54 -27 -60 -27 -139 -18 -94 11 -176 44 -243 99 -44 36 -92 116 -78
130 4 5 47 9 94 9 48 1 105 6 127 12 104 29 219 135 258 238 10 27 21 86 24
132 6 89 12 95 65 71z m-3247 -227 c176 -70 273 -96 534 -142 234 -42 422 -53
671 -41 319 15 519 49 775 131 186 59 320 100 328 100 39 0 -58 -377 -134
-520 -110 -207 -308 -384 -584 -524 -170 -86 -232 -99 -460 -100 -355 -2 -556
58 -793 236 -126 95 -184 155 -272 278 -108 150 -173 313 -205 510 -21 131
-21 130 13 120 15 -4 72 -26 127 -48z m2425 -38 c19 -68 -1 -404 -31 -499 -44
-146 -129 -245 -263 -310 -92 -44 -116 -45 -116 -6 0 48 15 75 105 194 47 61
100 141 119 177 42 79 104 260 136 393 13 53 27 97 31 97 3 0 12 -20 19 -46z
m-2625 -31 c10 -89 30 -169 68 -275 44 -123 84 -194 191 -338 47 -63 86 -124
86 -135 0 -36 -26 -61 -65 -63 -70 -5 -226 103 -293 202 -60 88 -99 248 -109
442 l-6 125 51 49 c29 28 56 50 61 50 5 0 13 -26 16 -57z m2157 -1320 c-2
-280 -5 -513 -7 -519 -2 -7 -97 -13 -290 -18 -157 -4 -292 -9 -299 -12 -8 -3
-16 2 -19 11 -4 8 -7 181 -7 383 -1 292 2 368 12 374 7 4 55 19 105 33 151 41
374 149 452 217 24 21 47 38 50 38 3 0 5 -228 3 -507z m-1636 442 c107 -86
266 -161 424 -200 36 -9 69 -20 74 -25 8 -8 10 -749 2 -757 -2 -2 -139 -1
-304 3 l-300 7 -6 36 c-3 20 -6 43 -6 51 4 118 -1 792 -5 840 -6 74 2 93 46
99 3 1 37 -24 75 -54z m502 -1049 c8 -9 3 -560 -6 -612 -13 -77 -61 -173 -104
-209 -36 -31 -90 -57 -160 -78 -42 -13 -52 -12 -96 3 -70 25 -168 94 -198 140
-40 60 -49 197 -45 695 l1 70 302 -3 c167 -2 304 -5 306 -6z m1129 -303 c-5
-333 -11 -382 -63 -471 -66 -113 -249 -160 -374 -97 -67 33 -115 77 -143 130
-18 34 -22 65 -28 220 -10 234 -11 510 -2 518 3 4 143 7 311 7 l304 0 -5 -307z"/>
<path d="M6741 9604 c-81 -41 -214 -143 -348 -266 -111 -104 -121 -116 -122
-150 -1 -20 4 -40 10 -44 7 -4 54 37 118 104 125 130 193 188 319 271 62 42
92 68 92 81 0 30 -14 31 -69 4z"/>
<path d="M7095 8894 c-22 -3 -112 -11 -200 -20 -209 -19 -346 -40 -475 -70
-132 -31 -190 -66 -228 -138 l-27 -51 -3 -395 c-4 -409 -1 -446 39 -577 34
-110 149 -205 411 -341 147 -76 383 -162 511 -187 171 -33 443 -27 607 12 191
46 484 183 674 316 135 94 207 230 224 422 5 61 7 114 4 119 -3 6 -7 143 -8
305 -3 360 -8 382 -97 434 -87 51 -342 112 -622 148 -124 16 -230 21 -465 24
-168 2 -323 1 -345 -1z m796 -84 c297 -37 544 -99 604 -152 23 -19 35 -41 40
-70 6 -36 18 -293 16 -335 -2 -23 -1 -37 3 -173 8 -298 -18 -425 -105 -512
-95 -95 -325 -231 -504 -299 -244 -91 -243 -91 -505 -92 -263 -2 -316 5 -509
70 -182 61 -453 198 -573 290 -111 85 -125 156 -128 666 -1 249 9 389 30 425
34 55 180 106 423 148 316 54 908 71 1208 34z"/>
<path d="M9350 10333 c-26 -10 -50 -35 -50 -54 0 -24 48 -79 69 -79 29 0 61
43 61 81 0 52 -29 71 -80 52z"/>
<path d="M4578 9979 c-30 -22 -36 -57 -18 -103 12 -32 52 -43 87 -25 38 21 45
41 28 90 -23 64 -49 74 -97 38z"/>
<path d="M10950 9670 c-24 -24 -25 -41 -5 -79 23 -45 80 -48 114 -7 14 16 7
71 -11 94 -16 19 -75 15 -98 -8z"/>
<path d="M2162 9220 c-17 -7 -21 -15 -17 -32 2 -13 17 -72 31 -131 14 -60 24
-110 22 -111 -4 -3 -198 -45 -223 -49 -15 -2 -21 -11 -23 -40 -4 -45 -6 -45
130 -12 57 14 108 25 115 25 14 0 25 -33 55 -168 l22 -103 36 6 c19 4 37 8 38
10 2 2 -11 61 -28 132 -18 70 -33 132 -34 136 -1 11 169 57 212 57 31 0 32 1
32 41 0 34 -3 40 -16 35 -37 -14 -235 -59 -240 -54 -4 5 -42 159 -60 246 -5
24 -16 26 -52 12z"/>
<path d="M10070 9191 c-112 -36 -170 -117 -170 -237 0 -95 33 -157 108 -205
91 -58 241 -29 308 58 94 124 63 280 -72 359 -46 27 -131 39 -174 25z m116
-70 c23 -10 54 -36 70 -57 26 -34 29 -45 29 -115 0 -75 -1 -79 -34 -113 -40
-41 -109 -71 -144 -62 -34 8 -99 63 -119 99 -24 45 -22 103 6 162 26 57 51 82
92 95 43 12 55 11 100 -9z"/>
<path d="M10077 7271 c6 -53 7 -51 -72 -117 l-30 -25 52 6 c62 7 88 -11 99
-70 5 -26 11 -35 21 -31 8 3 17 6 19 6 3 0 2 27 -2 59 l-6 59 50 26 c70 35 73
46 13 46 -66 0 -77 5 -103 51 -31 56 -49 51 -41 -10z"/>
<path d="M2037 7242 c-9 -10 -22 -33 -28 -51 -10 -29 -9 -35 8 -53 24 -23 84
-28 107 -9 21 17 20 51 -1 96 -13 27 -23 35 -43 35 -15 0 -34 -8 -43 -18z"/>
<path d="M3245 6443 c-60 -32 -95 -66 -120 -116 -48 -97 -27 -207 56 -281 60
-54 109 -68 193 -55 81 13 132 49 169 119 25 49 28 63 25 127 -3 60 -8 78 -33
114 -17 23 -52 57 -79 76 -43 29 -55 33 -115 33 -41 -1 -77 -7 -96 -17z m178
-78 c49 -32 72 -82 71 -156 0 -51 -5 -72 -23 -97 -50 -71 -149 -87 -222 -36
-74 51 -97 130 -60 209 48 103 147 137 234 80z"/>
<path d="M10258 4890 c-76 -23 -150 -95 -169 -162 -14 -53 -7 -144 15 -186 19
-37 70 -87 110 -109 37 -19 157 -14 202 10 81 42 134 126 134 212 0 151 -156
276 -292 235z m117 -79 c166 -76 129 -314 -51 -329 -61 -5 -107 18 -151 74
-45 59 -31 158 30 223 53 55 102 64 172 32z"/>
<path d="M5060 3241 c-25 -7 -25 -9 -20 -87 2 -43 5 -106 5 -139 l0 -60 -121
-3 -122 -3 -4 -30 c-3 -20 0 -33 9 -36 7 -3 64 -1 125 5 62 5 114 9 116 7 4
-4 24 -220 23 -252 -1 -29 2 -33 23 -33 32 0 56 25 56 58 0 15 -7 67 -15 117
-8 49 -11 93 -7 97 12 12 124 28 192 28 37 0 69 2 72 5 2 3 3 19 0 36 l-4 30
-82 -7 c-44 -3 -102 -10 -129 -14 -45 -7 -48 -6 -54 19 -4 14 -7 81 -7 149 1
132 3 129 -56 113z"/>
<path d="M3215 3129 c-71 -41 -97 -66 -125 -122 -55 -110 -37 -204 55 -285 59
-52 122 -69 197 -52 64 13 103 38 144 94 86 114 62 247 -61 335 -44 32 -57 36
-120 39 -39 1 -79 -2 -90 -9z m170 -87 c99 -68 104 -192 12 -285 -48 -47 -84
-54 -138 -26 -24 12 -56 31 -71 42 -27 20 -58 81 -58 115 0 39 23 95 53 129
60 69 126 77 202 25z"/>
<path d="M7580 1868 c-51 -15 -108 -64 -135 -119 -19 -37 -25 -64 -25 -116 1
-87 23 -138 85 -189 44 -36 53 -39 122 -42 154 -8 249 75 260 230 4 68 3 76
-25 119 -36 56 -103 105 -163 118 -53 13 -73 12 -119 -1z m150 -87 c95 -50
116 -175 43 -262 -56 -67 -135 -77 -209 -26 -62 42 -89 92 -80 151 19 123 143
192 246 137z"/>
<path d="M4983 1633 c-33 -6 -46 -29 -45 -76 4 -103 132 -99 132 4 0 56 -32
82 -87 72z"/>
</g>
</svg>
