<?xml version="1.0" standalone="no"?>
<!DOCTYPE svg PUBLIC "-//W3C//DTD SVG 20010904//EN"
 "http://www.w3.org/TR/2001/REC-SVG-20010904/DTD/svg10.dtd">
<svg version="1.0" xmlns="http://www.w3.org/2000/svg"
 width="1016.000000pt" height="904.000000pt" viewBox="0 0 1016.000000 904.000000"
 preserveAspectRatio="xMidYMid meet">

<g transform="translate(0.000000,904.000000) scale(0.100000,-0.100000)"
fill="#fff" stroke="none">
<path d="M7990 8260 c-159 -23 -356 -100 -504 -198 -143 -95 -298 -264 -380
-413 -94 -172 -136 -329 -143 -542 l-6 -157 -81 5 c-145 11 -355 35 -463 55
-160 29 -163 47 -13 74 89 16 399 46 474 46 36 0 45 4 49 21 3 12 0 22 -8 25
-18 7 -326 -22 -444 -42 -110 -19 -226 -62 -226 -84 0 -46 222 -99 522 -126
109 -9 199 -18 200 -19 1 0 5 -19 8 -41 11 -70 66 -237 107 -322 161 -334 492
-583 857 -646 120 -20 323 -21 432 -1 432 80 785 395 920 819 16 51 33 120 37
152 l7 58 180 27 c281 41 396 73 412 116 8 21 -27 50 -75 62 -45 12 -377 51
-433 51 -33 0 -40 -3 -37 -17 2 -14 18 -20 68 -25 36 -5 146 -17 245 -28 98
-11 183 -24 188 -29 12 -12 -34 -36 -108 -55 -54 -13 -366 -56 -413 -56 -17 0
-19 9 -19 113 -1 561 -405 1053 -957 1163 -91 18 -312 26 -396 14z m436 -70
c323 -81 588 -287 739 -573 52 -99 97 -224 119 -332 19 -93 26 -299 11 -313
-16 -16 -643 -43 -1120 -49 -398 -5 -782 3 -1082 23 l-93 7 0 102 c0 445 248
853 635 1047 162 82 317 116 521 117 137 1 164 -2 270 -29z m864 -1287 c0 -16
-4 -34 -8 -41 -6 -9 -86 -17 -278 -29 -297 -18 -1461 -25 -1781 -10 -198 9
-241 -6 -55 -20 181 -13 1549 -8 1737 6 242 18 375 25 375 18 0 -16 -63 -193
-89 -252 -148 -325 -477 -577 -843 -646 -90 -16 -328 -14 -413 5 -88 19 -232
69 -310 109 -272 137 -501 419 -580 717 -13 52 -28 106 -31 119 l-7 24 119 -6
c278 -16 995 -19 1389 -8 324 10 715 30 768 40 4 0 7 -11 7 -26z"/>
<path d="M7765 7843 c-74 -39 -105 -90 -105 -173 0 -66 29 -122 80 -156 32
-21 52 -27 103 -27 79 -1 125 25 163 89 23 39 26 53 22 109 -3 53 -9 71 -34
102 -17 21 -46 46 -65 55 -42 22 -124 23 -164 1z m153 -43 c69 -43 92 -132 51
-200 -40 -65 -86 -88 -153 -76 -39 8 -99 67 -116 117 -11 30 -10 41 5 72 9 20
35 52 56 72 32 28 47 35 82 35 24 0 56 -8 75 -20z"/>
<path d="M8338 6535 c-71 -39 -87 -138 -32 -196 70 -73 198 -31 211 69 13 95
-96 172 -179 127z m112 -61 c25 -29 30 -42 25 -63 -13 -53 -62 -88 -97 -70
-76 39 -88 89 -33 138 46 40 66 39 105 -5z"/>
<path d="M4870 6709 l0 -71 -65 7 c-61 6 -65 5 -65 -14 0 -17 9 -21 60 -27
l60 -7 0 -63 c0 -62 1 -64 25 -64 24 0 25 2 25 65 l0 65 66 0 c57 0 65 2 62
18 -3 14 -16 18 -66 20 l-62 3 0 69 c0 63 -2 70 -20 70 -18 0 -20 -7 -20 -71z"/>
<path d="M3310 6322 c-57 -26 -90 -75 -90 -132 0 -64 53 -110 128 -110 61 0
122 61 122 122 0 30 -32 83 -63 102 -28 19 -77 28 -97 18z m69 -57 c32 -16 41
-33 41 -75 0 -73 -111 -97 -145 -30 -21 41 -19 54 14 89 32 35 49 38 90 16z"/>
<path d="M6238 5982 c-51 -31 -72 -110 -46 -166 6 -14 30 -35 54 -46 77 -38
151 -4 174 79 28 104 -91 190 -182 133z m111 -48 c41 -34 42 -75 2 -115 -16
-16 -39 -29 -51 -29 -30 0 -80 53 -80 83 0 30 53 87 80 87 10 0 32 -12 49 -26z"/>
<path d="M4001 5546 c-7 -8 -11 -25 -9 -38 2 -18 9 -23 33 -23 28 0 30 3 30
35 0 28 -4 36 -21 38 -11 2 -26 -4 -33 -12z"/>
<path d="M4894 5510 c-63 -25 -85 -117 -39 -160 30 -28 30 -32 8 -132 l-16
-77 -79 -46 c-279 -165 -434 -471 -406 -804 4 -46 14 -107 24 -137 l16 -53
-36 -43 c-43 -49 -87 -138 -111 -220 -14 -49 -22 -60 -58 -81 -23 -13 -102
-58 -175 -100 -73 -42 -151 -81 -174 -88 -56 -15 -121 -61 -148 -104 -31 -49
-38 -142 -16 -199 22 -57 91 -121 148 -137 64 -17 137 1 204 51 55 42 76 51
54 24 -8 -8 -15 -50 -18 -93 l-4 -78 -128 -66 c-405 -213 -931 -330 -1265
-282 -410 58 -682 139 -1004 299 -313 155 -531 314 -765 558 -146 152 -156
161 -156 132 0 -67 279 -337 523 -507 430 -299 843 -451 1432 -528 314 -41
795 69 1212 276 133 67 149 73 161 58 6 -9 12 -25 12 -36 0 -25 103 -127 129
-127 12 0 21 -5 21 -11 0 -13 -53 -226 -80 -324 -58 -207 -119 -446 -125 -487
-9 -60 7 -110 52 -159 43 -48 88 -63 159 -54 40 5 64 14 89 36 56 49 58 55
200 581 25 91 45 173 45 182 0 20 4 20 73 -4 31 -11 68 -20 82 -20 15 0 25 -6
25 -14 0 -15 -32 -134 -73 -276 -48 -164 -97 -349 -108 -405 -31 -170 142
-294 288 -205 64 39 86 99 213 595 82 323 76 305 115 305 60 0 137 36 187 87
56 58 76 97 92 176 7 34 17 62 22 64 5 2 20 -31 33 -72 39 -127 121 -191 237
-183 110 7 193 86 202 193 7 85 -4 122 -53 174 -23 25 -93 133 -155 240 -93
161 -111 199 -107 225 2 17 10 68 17 113 12 73 11 88 -3 124 l-16 41 56 57
c175 176 249 363 247 621 -1 124 -4 143 -33 230 -93 277 -289 466 -558 535
-123 32 -265 34 -378 5 -43 -11 -80 -20 -83 -20 -5 0 5 57 19 112 7 29 15 38
39 43 37 8 80 58 80 94 0 30 -41 92 -68 103 -23 9 -53 8 -78 -2z m86 -60 c11
-11 20 -25 20 -31 0 -15 -21 -53 -34 -61 -35 -24 -96 11 -96 54 0 53 71 77
110 38z m382 -314 c299 -82 523 -357 553 -681 14 -148 -33 -341 -116 -481 -46
-78 -166 -203 -244 -254 -35 -23 -107 -57 -162 -77 -219 -79 -455 -50 -649 80
-169 112 -278 272 -325 475 -51 222 5 473 147 659 120 156 285 262 456 293 74
13 272 5 340 -14z m-910 -1156 l27 -61 -37 -23 c-67 -41 -129 -76 -136 -76
-10 0 3 55 26 110 23 54 64 110 81 110 7 0 24 -27 39 -60z m76 -120 c-2 -11
-30 -41 -63 -67 -115 -93 -185 -200 -240 -369 -29 -85 -43 -99 -144 -145 -57
-25 -69 -24 -122 10 -66 41 -92 89 -87 155 6 68 28 98 108 142 82 46 422 239
475 270 51 29 78 31 73 4z m110 -111 c111 -102 282 -173 447 -185 80 -7 243
10 277 27 30 16 43 0 76 -94 52 -150 58 -211 33 -346 -11 -63 -22 -116 -24
-118 -2 -2 -87 -4 -188 -5 -149 -1 -206 3 -300 20 -225 41 -401 111 -591 233
-62 40 -115 74 -117 76 -5 4 46 147 76 210 14 30 46 76 70 103 44 49 150 138
166 139 5 1 39 -26 75 -60z m996 -167 c-6 -72 -20 -99 -36 -71 -5 8 -24 41
-44 73 -19 33 -31 63 -26 68 4 4 28 21 53 36 l44 29 7 -31 c5 -17 5 -64 2
-104z m-23 -170 c67 -119 142 -250 167 -291 25 -41 48 -90 52 -108 25 -108
-93 -216 -199 -185 -57 18 -87 46 -120 115 -31 61 -31 62 -16 117 47 176 40
314 -25 462 -37 86 -38 102 -1 105 15 1 46 -45 142 -215z m-1771 96 c0 -7 -4
-30 -9 -51 -19 -79 48 -182 140 -214 27 -10 48 -22 46 -28 -6 -19 -91 -55
-132 -55 -85 0 -175 91 -175 177 0 24 9 62 21 86 31 63 110 124 109 85z m483
-252 c93 -66 251 -144 377 -185 204 -66 387 -91 603 -83 l129 4 -28 -53 c-43
-85 -99 -163 -151 -209 -90 -79 -282 -152 -398 -151 -160 1 -339 73 -440 176
-113 115 -175 247 -183 391 -4 82 2 164 13 164 2 0 37 -24 78 -54z m-127 -84
c0 -97 4 -127 23 -177 45 -118 49 -129 44 -142 -15 -40 -92 18 -135 102 -38
72 -18 278 30 316 14 10 27 19 31 19 3 0 6 -53 7 -118z m1720 -237 c18 -43 18
-126 0 -168 -25 -61 -111 -117 -179 -117 -48 0 -145 78 -162 130 -9 30 -1 34
36 21 104 -36 232 27 259 128 13 50 26 52 46 6z m-481 -120 c-41 -117 -85
-177 -149 -206 -41 -19 -116 -26 -116 -11 0 10 47 54 113 106 49 39 136 154
164 216 13 28 17 31 20 16 3 -10 -12 -65 -32 -121z m-1087 -61 c23 -29 75 -75
119 -104 43 -28 79 -53 81 -54 1 -2 -2 -16 -7 -32 -5 -16 -26 -92 -46 -169
-20 -77 -40 -143 -44 -147 -4 -5 -62 8 -128 27 -67 19 -129 35 -137 35 -24 0
-20 23 33 223 27 101 53 202 57 223 12 70 16 69 72 -2z m782 -189 c-10 -27
-113 -388 -124 -437 -4 -16 -12 -28 -19 -28 -6 0 -63 14 -126 30 -62 17 -122
30 -132 30 -11 0 -19 7 -19 17 0 13 61 255 86 341 2 8 23 12 58 12 65 0 189
23 236 43 48 21 51 20 40 -8z m-825 -325 c66 -18 124 -36 128 -40 8 -7 -40
-199 -69 -276 -25 -66 -73 -106 -134 -112 -62 -6 -91 8 -131 62 -36 49 -36 70
-3 199 47 189 54 209 72 204 10 -3 71 -19 137 -37z m538 -147 l138 -37 -6 -36
c-12 -64 -67 -244 -86 -283 -29 -56 -72 -79 -137 -74 -43 3 -59 10 -87 37 -49
48 -60 80 -46 137 42 173 75 293 80 293 3 0 68 -17 144 -37z"/>
<path d="M4927 5065 c-31 -13 -89 -41 -127 -61 -55 -30 -70 -43 -70 -61 0 -13
2 -23 5 -23 2 0 37 20 78 45 40 25 109 58 152 73 43 15 80 33 83 40 6 20 -58
13 -121 -13z"/>
<path d="M4682 4740 c-39 -9 -71 -36 -84 -70 -39 -101 -108 -381 -108 -440 0
-64 42 -132 137 -220 147 -137 279 -207 447 -236 140 -24 322 -4 469 53 58 22
122 86 146 147 26 64 101 361 101 398 0 61 -108 135 -318 217 -132 51 -248 85
-397 115 -161 33 -340 49 -393 36z m333 -65 c134 -24 339 -79 430 -115 104
-41 243 -116 277 -150 31 -31 30 -37 -27 -259 -43 -166 -74 -232 -121 -262
-58 -35 -181 -69 -299 -81 -100 -10 -119 -9 -209 10 -167 36 -290 107 -438
252 -78 77 -98 109 -98 159 0 34 82 363 103 414 9 20 26 42 39 47 31 14 231 5
343 -15z"/>
<path d="M2728 5433 l-3 -67 -62 3 c-58 2 -63 1 -63 -18 0 -19 6 -21 60 -21
l60 0 0 -75 c0 -68 2 -75 20 -75 20 0 26 28 23 113 -1 27 -1 27 69 27 61 0 69
2 66 18 -3 14 -16 18 -66 20 l-62 3 0 69 c0 63 -2 70 -20 70 -17 0 -19 -8 -22
-67z"/>
<path d="M7460 5323 c-24 -9 -30 -25 -30 -81 l0 -54 -67 4 c-55 2 -68 0 -68
-12 0 -15 25 -26 89 -35 l39 -6 -7 -65 c-7 -64 -6 -65 16 -62 21 3 23 9 26 66
l3 63 59 -7 c52 -6 59 -4 69 15 13 23 10 24 -32 21 -15 -1 -41 2 -58 5 l-32 7
7 74 c4 41 6 74 4 73 -2 0 -10 -3 -18 -6z"/>
<path d="M8314 5280 c-41 -16 -74 -68 -74 -117 0 -38 5 -50 34 -79 30 -30 40
-34 86 -34 46 0 56 4 86 34 28 28 34 42 34 75 0 48 -20 93 -52 115 -24 17 -80
20 -114 6z m104 -67 c43 -47 8 -123 -57 -125 -64 -2 -102 68 -65 120 33 47 82
49 122 5z"/>
<path d="M6336 5085 c-3 -9 -1 -25 4 -36 18 -33 58 -20 62 21 3 21 -2 25 -28
28 -22 2 -33 -2 -38 -13z"/>
<path d="M7833 4678 c-5 -7 -9 -20 -8 -28 1 -8 3 -21 3 -28 1 -8 12 -12 30
-10 21 2 28 9 30 32 5 39 -33 63 -55 34z"/>
<path d="M7052 4571 c-8 -4 -12 -19 -10 -32 5 -36 54 -40 60 -5 7 38 -19 57
-50 37z"/>
<path d="M2414 4544 c-17 -25 -17 -27 1 -41 31 -22 50 -12 50 27 0 45 -27 52
-51 14z"/>
<path d="M6513 4445 c-61 -26 -87 -128 -47 -182 30 -40 62 -54 113 -50 117 12
150 165 48 227 -37 23 -70 25 -114 5z m102 -50 c36 -35 35 -96 -1 -124 -37
-29 -78 -27 -103 5 -30 39 -27 81 9 115 37 35 63 37 95 4z"/>
<path d="M2895 4019 c-101 -28 -124 -178 -33 -225 65 -34 139 -12 169 49 49
100 -31 203 -136 176z m85 -64 c19 -20 22 -31 17 -66 -7 -51 -24 -70 -66 -71
-72 -2 -107 82 -56 136 31 34 74 34 105 1z"/>
<path d="M6320 3530 c0 -12 -13 -28 -32 -40 l-31 -19 25 -6 c18 -5 28 -15 32
-36 7 -38 26 -37 26 1 0 26 5 31 30 37 38 7 38 14 0 35 -17 9 -30 24 -30 33 0
8 -4 15 -10 15 -5 0 -10 -9 -10 -20z"/>
<path d="M2445 2422 c-50 -17 -95 -75 -95 -122 0 -32 32 -84 65 -106 35 -23
108 -14 140 16 31 29 48 81 40 119 -6 30 -59 91 -79 91 -6 0 -20 2 -31 4 -11
3 -29 1 -40 -2z m74 -59 c40 -38 45 -62 21 -101 -28 -46 -62 -60 -94 -38 -67
43 -70 101 -7 143 43 29 45 29 80 -4z"/>
<path d="M6042 2344 c-46 -23 -65 -57 -66 -112 -2 -83 59 -131 144 -117 74 12
117 96 87 168 -27 64 -103 92 -165 61z m88 -41 c34 -23 40 -33 40 -71 0 -41
-38 -82 -75 -82 -32 0 -85 50 -85 79 0 26 57 91 79 91 9 0 28 -8 41 -17z"/>
<path d="M6926 2327 c-20 -15 -13 -43 16 -58 26 -14 48 5 48 42 0 24 -4 29
-23 29 -13 0 -31 -6 -41 -13z"/>
<path d="M3354 2226 c-3 -8 -9 -36 -12 -62 -7 -48 -8 -49 -42 -48 -19 1 -48 3
-65 5 -21 3 -30 -1 -33 -13 -3 -13 9 -19 57 -29 34 -6 61 -14 61 -18 -1 -3 -7
-34 -14 -69 -9 -40 -10 -65 -4 -68 18 -12 38 22 45 75 l6 52 75 -7 c72 -6 74
-6 63 14 -8 14 -25 21 -66 27 -62 7 -64 10 -40 89 8 27 15 53 15 58 0 14 -40
9 -46 -6z"/>
<path d="M5664 1626 c-11 -29 1 -51 26 -51 21 0 26 5 28 33 3 29 1 32 -23 32
-14 0 -28 -6 -31 -14z"/>
<path d="M3097 1464 c-14 -14 -7 -65 9 -71 26 -10 49 11 49 43 0 24 -5 30 -25
32 -14 2 -29 0 -33 -4z"/>
<path d="M4363 1236 c-91 -41 -95 -179 -6 -221 68 -33 140 -6 169 62 23 53 17
80 -23 124 -44 46 -90 57 -140 35z m104 -58 c32 -30 31 -81 -2 -113 -33 -33
-70 -32 -106 4 -36 36 -37 60 -3 100 32 38 76 42 111 9z"/>
</g>
</svg>
