<svg id="svg" version="1.1" xmlns="http://www.w3.org/2000/svg" xmlns:xlink="http://www.w3.org/1999/xlink" width="400" height="481.6728167281673" viewBox="0, 0, 400,481.6728167281673"><g id="svgg"><path id="path0" d="M262.133 0.269 C 262.052 0.351,258.887 0.556,255.101 0.725 C 245.259 1.164,227.588 5.169,219.188 8.865 C 218.106 9.341,215.505 10.440,213.408 11.307 C 211.311 12.174,209.472 13.084,209.320 13.330 C 209.168 13.575,208.720 13.776,208.324 13.776 C 207.929 13.776,206.779 14.316,205.771 14.976 C 204.762 15.636,203.327 16.324,202.583 16.506 C 201.839 16.687,201.230 17.045,201.230 17.303 C 201.230 17.560,201.009 17.633,200.738 17.466 C 200.467 17.299,200.246 17.397,200.246 17.683 C 200.246 17.970,200.044 18.204,199.798 18.204 C 199.552 18.204,198.420 18.813,197.284 19.557 C 196.147 20.301,195.136 20.861,195.037 20.800 C 194.938 20.739,194.264 21.239,193.539 21.912 C 192.813 22.584,192.130 23.044,192.020 22.935 C 191.911 22.825,191.249 23.266,190.550 23.914 C 189.850 24.562,189.089 25.092,188.858 25.092 C 188.627 25.092,188.050 25.430,187.577 25.843 C 187.103 26.255,186.122 27.086,185.396 27.688 C 184.671 28.290,182.492 30.221,180.555 31.980 C 178.618 33.739,176.777 35.188,176.463 35.201 C 176.149 35.213,175.947 35.490,176.015 35.816 C 176.082 36.142,175.861 36.433,175.523 36.462 C 175.185 36.492,173.358 38.239,171.464 40.344 C 169.569 42.450,167.798 44.197,167.528 44.227 C 166.946 44.290,164.330 47.473,164.330 48.117 C 164.330 48.362,163.665 49.258,162.854 50.107 C 162.042 50.957,161.378 51.826,161.378 52.038 C 161.378 52.251,160.726 53.139,159.929 54.011 C 159.133 54.883,158.635 55.603,158.822 55.612 C 159.010 55.620,158.776 55.852,158.303 56.128 C 157.829 56.404,157.442 56.939,157.442 57.318 C 157.442 57.696,156.888 58.603,156.212 59.333 C 155.535 60.063,154.982 60.973,154.982 61.355 C 154.982 61.738,154.798 61.937,154.573 61.798 C 154.348 61.659,153.864 62.310,153.497 63.245 C 153.130 64.180,152.637 64.945,152.401 64.945 C 152.165 64.945,152.094 65.143,152.244 65.385 C 152.393 65.627,152.171 65.958,151.750 66.120 C 151.328 66.281,151.104 66.609,151.251 66.848 C 151.399 67.086,150.858 68.195,150.049 69.311 C 149.241 70.427,148.698 71.341,148.843 71.341 C 148.988 71.341,148.446 72.614,147.640 74.170 C 142.152 84.751,137.860 97.957,135.527 111.439 C 135.105 113.875,134.639 116.531,134.490 117.343 C 133.673 121.810,133.590 134.896,133.704 241.451 L 133.829 357.688 155.353 357.680 C 167.190 357.676,177.148 357.500,177.480 357.289 C 177.954 356.988,178.121 332.043,178.253 241.552 C 178.346 178.108,178.574 125.427,178.760 124.483 C 178.946 123.539,179.199 122.432,179.323 122.023 C 179.447 121.614,179.687 119.840,179.858 118.081 C 180.029 116.322,180.613 113.223,181.156 111.193 C 181.699 109.164,182.257 107.002,182.397 106.389 C 182.537 105.776,182.846 105.154,183.085 105.007 C 183.323 104.859,183.518 104.213,183.518 103.571 C 183.518 101.983,186.292 95.177,186.598 96.012 C 186.733 96.379,187.117 95.630,187.451 94.348 C 187.838 92.866,188.263 92.133,188.618 92.336 C 188.925 92.511,189.019 92.480,188.827 92.267 C 188.377 91.769,189.491 89.598,192.191 85.708 C 193.374 84.004,194.343 82.454,194.344 82.264 C 194.345 82.074,195.047 81.144,195.904 80.197 C 199.247 76.500,199.997 75.562,199.039 76.280 C 198.085 76.993,198.085 76.988,199.039 75.692 C 199.568 74.973,200.221 74.419,200.492 74.462 C 200.763 74.504,200.923 74.246,200.849 73.887 C 200.774 73.529,200.923 73.365,201.178 73.523 C 201.434 73.681,202.106 73.199,202.671 72.452 C 204.436 70.122,205.791 68.633,206.099 68.683 C 206.263 68.710,206.995 68.046,207.727 67.207 C 208.460 66.369,209.269 65.683,209.525 65.683 C 209.781 65.683,210.538 65.129,211.206 64.453 C 213.296 62.337,215.063 61.009,215.786 61.009 C 216.169 61.009,216.427 60.755,216.359 60.446 C 216.292 60.136,216.956 59.687,217.835 59.448 C 218.715 59.208,219.434 58.803,219.434 58.547 C 219.434 58.039,222.405 56.316,223.001 56.479 C 223.204 56.535,223.370 56.393,223.370 56.163 C 223.370 55.934,224.311 55.331,225.461 54.824 C 226.611 54.317,227.663 53.767,227.798 53.602 C 227.934 53.437,229.207 52.889,230.627 52.384 C 232.048 51.879,233.210 51.336,233.210 51.176 C 233.210 51.016,233.598 50.854,234.071 50.815 C 234.545 50.776,235.818 50.355,236.900 49.879 C 237.983 49.403,238.979 48.988,239.114 48.955 C 239.250 48.923,240.302 48.724,241.454 48.513 C 242.729 48.279,243.421 47.926,243.225 47.609 C 243.013 47.266,243.346 47.200,244.207 47.416 C 244.924 47.596,245.510 47.552,245.510 47.317 C 245.510 45.863,264.969 44.128,273.555 44.816 C 279.115 45.261,288.285 46.953,288.794 47.627 C 288.936 47.816,289.680 48.037,290.446 48.118 C 291.212 48.200,293.024 48.809,294.473 49.471 C 295.922 50.134,297.305 50.677,297.545 50.677 C 298.743 50.677,307.508 54.847,315.217 59.084 C 322.409 63.038,332.688 72.439,338.081 79.993 C 341.390 84.629,345.880 92.333,345.496 92.717 C 345.346 92.866,345.495 92.989,345.826 92.989 C 346.158 92.989,346.293 93.210,346.125 93.481 C 345.958 93.752,346.069 93.973,346.371 93.973 C 346.674 93.973,346.796 94.175,346.643 94.423 C 346.490 94.670,346.600 94.951,346.887 95.047 C 347.174 95.143,347.459 95.549,347.519 95.950 C 347.580 96.351,347.802 96.956,348.013 97.294 C 348.225 97.632,348.218 97.912,348.000 97.917 C 347.781 97.921,347.835 98.087,348.121 98.286 C 349.377 99.160,353.752 114.573,353.752 118.125 C 353.752 119.152,353.997 120.143,354.298 120.329 C 354.619 120.527,354.732 121.356,354.573 122.337 C 354.424 123.256,354.486 123.893,354.712 123.754 C 355.314 123.382,355.884 132.832,355.443 135.883 C 355.236 137.322,355.018 139.496,354.959 140.713 C 354.851 142.957,354.565 144.792,354.066 146.445 C 353.915 146.946,353.665 148.462,353.510 149.815 C 353.356 151.169,353.021 153.050,352.766 153.998 C 352.512 154.945,352.277 155.880,352.244 156.077 C 351.750 159.010,348.656 168.418,348.302 168.064 C 348.165 167.928,348.019 168.274,347.977 168.834 C 347.935 169.394,347.522 170.270,347.060 170.781 C 346.597 171.292,346.380 171.710,346.576 171.710 C 346.773 171.710,346.586 172.058,346.161 172.483 C 345.735 172.908,345.387 173.572,345.387 173.959 C 345.387 174.345,345.166 174.662,344.895 174.662 C 344.625 174.662,344.403 174.998,344.403 175.409 C 344.403 176.550,341.976 180.940,341.175 181.247 C 340.786 181.397,340.467 181.899,340.467 182.364 C 340.467 182.828,339.618 184.219,338.579 185.454 C 337.540 186.689,336.415 188.217,336.079 188.849 C 335.743 189.481,335.340 189.870,335.184 189.714 C 334.832 189.363,333.579 190.357,333.579 190.987 C 333.579 191.241,333.801 191.311,334.071 191.144 C 334.872 190.649,334.632 191.214,333.731 191.945 C 333.210 192.368,333.033 192.396,333.257 192.022 C 333.455 191.693,331.910 193.132,329.824 195.220 C 327.738 197.308,326.075 199.198,326.128 199.422 C 326.180 199.645,326.029 199.707,325.791 199.560 C 325.553 199.413,324.828 199.871,324.180 200.577 C 322.655 202.240,314.128 208.610,313.428 208.610 C 312.290 208.610,312.061 211.398,311.750 229.028 C 311.574 239.041,311.288 249.723,311.116 252.768 C 310.713 259.885,310.695 259.884,324.053 253.359 C 326.796 252.019,329.286 250.923,329.588 250.923 C 329.889 250.923,330.135 250.708,330.135 250.445 C 330.135 250.182,331.298 249.395,332.718 248.696 C 338.420 245.888,342.349 243.132,352.276 234.977 C 358.618 229.767,367.675 221.041,368.223 219.615 C 368.365 219.245,368.709 218.942,368.988 218.942 C 369.267 218.942,369.496 218.610,369.496 218.204 C 369.496 217.798,369.806 217.466,370.186 217.466 C 370.565 217.466,371.121 216.857,371.422 216.113 C 372.250 214.063,374.433 211.295,375.076 211.480 C 375.389 211.570,375.496 211.495,375.314 211.312 C 375.131 211.129,376.070 209.360,377.400 207.380 C 378.730 205.400,380.041 203.193,380.314 202.475 C 380.587 201.758,381.021 201.302,381.280 201.461 C 381.538 201.621,381.992 200.853,382.288 199.754 C 382.584 198.655,383.019 197.876,383.255 198.021 C 383.491 198.167,383.835 197.598,384.020 196.756 C 384.205 195.914,384.747 194.834,385.226 194.356 C 385.704 193.877,386.309 192.627,386.569 191.577 C 386.829 190.527,387.301 189.723,387.617 189.791 C 387.936 189.859,388.192 189.363,388.192 188.679 C 388.192 187.999,388.616 186.505,389.135 185.357 C 389.653 184.210,390.357 182.455,390.699 181.456 C 391.041 180.458,391.548 179.683,391.826 179.734 C 392.103 179.786,392.488 178.942,392.681 177.860 C 392.873 176.777,393.143 175.449,393.280 174.908 C 393.417 174.367,393.549 173.481,393.574 172.940 C 393.611 172.121,393.699 172.080,394.096 172.694 C 394.452 173.245,394.575 172.982,394.580 171.651 C 394.585 170.671,395.000 168.568,395.505 166.977 C 396.009 165.386,396.584 162.977,396.783 161.624 C 396.981 160.271,397.274 158.952,397.433 158.694 C 397.592 158.436,397.749 157.661,397.781 156.972 C 397.964 153.104,398.081 152.329,398.409 152.842 C 399.221 154.116,399.635 124.367,398.903 117.343 C 397.644 105.273,394.229 91.569,390.435 83.356 C 389.467 81.260,388.574 78.990,388.451 78.312 C 388.328 77.634,388.041 76.950,387.814 76.793 C 387.107 76.304,384.204 70.346,384.466 69.923 C 384.602 69.702,384.223 68.998,383.624 68.358 C 382.578 67.241,381.759 66.032,380.977 64.453 C 380.484 63.455,374.043 54.408,369.943 48.954 C 364.270 41.407,353.016 30.934,343.648 24.484 C 319.017 7.526,299.071 1.121,268.287 0.284 C 264.985 0.194,262.215 0.187,262.133 0.269 M244.213 123.862 L 222.498 123.995 222.204 125.097 C 222.042 125.703,221.887 177.565,221.858 240.344 C 221.804 360.215,221.776 361.901,219.663 370.052 C 217.745 377.455,212.051 391.121,210.349 392.406 C 209.967 392.694,209.586 393.248,209.501 393.636 C 209.417 394.024,208.901 395.006,208.354 395.818 C 207.807 396.630,207.054 397.897,206.679 398.634 C 206.304 399.371,205.257 400.783,204.352 401.771 C 203.447 402.759,202.706 403.736,202.706 403.941 C 202.706 404.147,202.145 404.682,201.460 405.131 C 200.775 405.580,200.349 406.164,200.513 406.430 C 200.677 406.695,200.613 406.852,200.371 406.777 C 200.128 406.703,198.589 408.192,196.949 410.086 C 185.173 423.692,164.171 434.624,145.886 436.668 C 131.605 438.263,119.662 437.573,110.947 434.648 C 108.782 433.922,106.679 433.286,106.273 433.236 C 105.867 433.185,104.455 432.661,103.135 432.070 C 101.816 431.480,100.598 430.996,100.429 430.995 C 99.057 430.987,89.545 426.566,89.545 425.935 C 89.545 425.710,89.290 425.684,88.978 425.876 C 88.667 426.069,88.168 425.893,87.870 425.485 C 87.571 425.078,86.443 424.292,85.361 423.740 C 79.328 420.659,68.457 410.372,62.094 401.722 C 59.125 397.686,57.934 395.835,56.715 393.358 C 54.543 388.948,53.494 386.990,53.157 386.716 C 52.667 386.318,49.829 379.097,49.520 377.462 C 49.434 377.004,49.130 376.076,48.846 375.400 C 47.855 373.042,46.774 368.732,46.255 365.068 C 45.967 363.038,45.511 360.049,45.241 358.426 C 44.607 354.608,44.284 344.795,44.771 344.157 C 44.978 343.887,45.294 341.894,45.473 339.729 C 45.911 334.444,45.983 333.942,46.961 329.397 C 48.773 320.973,50.005 317.428,53.970 309.225 C 55.848 305.341,55.920 305.216,59.234 300.129 C 63.493 293.591,70.463 285.669,76.210 280.832 C 79.526 278.041,84.735 274.062,86.388 273.057 C 87.448 272.412,88.478 271.652,88.676 271.367 C 89.467 270.234,89.114 223.370,88.315 223.370 C 87.909 223.370,87.577 223.592,87.577 223.862 C 87.577 224.133,87.116 224.354,86.554 224.354 C 85.991 224.354,84.055 224.945,82.251 225.666 C 80.447 226.388,78.694 226.978,78.354 226.978 C 78.015 226.978,77.737 227.137,77.737 227.331 C 77.737 227.654,76.577 228.142,74.834 228.554 C 74.455 228.644,74.012 228.898,73.850 229.119 C 73.210 229.990,70.257 231.803,69.370 231.870 C 68.853 231.909,68.527 232.036,68.644 232.153 C 68.761 232.270,67.829 232.913,66.573 233.581 C 64.105 234.895,59.531 237.986,54.904 241.466 C 53.305 242.669,51.706 243.695,51.351 243.747 C 50.996 243.799,50.533 244.031,50.322 244.263 C 50.111 244.495,50.249 244.504,50.630 244.283 C 51.109 244.005,51.207 244.067,50.949 244.484 C 50.744 244.815,50.283 244.973,49.925 244.835 C 49.566 244.698,48.979 244.959,48.621 245.417 C 48.036 246.164,48.058 246.180,48.831 245.573 C 49.305 245.202,49.692 245.029,49.692 245.189 C 49.692 245.349,48.530 246.229,47.109 247.143 C 44.898 248.568,34.996 258.303,35.759 258.303 C 35.906 258.303,35.061 259.264,33.880 260.438 C 31.252 263.054,27.552 267.447,27.552 267.953 C 27.552 268.158,26.667 269.376,25.584 270.659 C 24.502 271.943,23.616 273.110,23.616 273.252 C 23.616 273.787,21.055 277.261,20.382 277.638 C 19.996 277.855,19.680 278.412,19.680 278.877 C 19.680 279.342,19.127 280.537,18.450 281.533 C 17.774 282.528,17.220 283.557,17.220 283.820 C 17.220 284.082,17.054 284.371,16.851 284.461 C 16.311 284.701,9.375 299.034,9.331 300.002 C 9.322 300.204,8.887 301.255,8.364 302.337 C 7.841 303.419,7.406 304.591,7.397 304.940 C 7.388 305.289,6.968 306.396,6.464 307.400 C 5.961 308.404,5.647 309.502,5.767 309.840 C 5.888 310.178,5.733 310.455,5.424 310.455 C 5.115 310.455,4.986 310.657,5.139 310.903 C 5.468 311.436,4.395 316.359,3.949 316.359 C 3.779 316.359,3.618 317.119,3.591 318.048 C 3.565 318.977,3.363 320.028,3.143 320.385 C 2.923 320.741,2.809 321.667,2.890 322.441 C 2.971 323.216,2.852 323.737,2.626 323.599 C 2.399 323.461,2.171 324.156,2.117 325.143 C 2.014 327.063,1.242 332.568,0.623 335.793 C 0.416 336.876,0.298 342.854,0.362 349.077 C 0.477 360.165,0.578 362.101,1.124 363.592 C 1.273 363.998,1.533 366.200,1.701 368.485 C 1.869 370.771,2.241 373.649,2.526 374.881 C 2.811 376.114,3.145 377.786,3.268 378.598 C 3.602 380.803,5.384 387.106,6.495 390.009 C 7.032 391.415,7.306 392.833,7.104 393.160 C 6.870 393.539,6.943 393.628,7.304 393.405 C 7.643 393.195,7.872 393.372,7.872 393.845 C 7.872 394.280,8.333 395.566,8.897 396.703 C 9.460 397.840,10.243 399.822,10.638 401.107 C 11.032 402.392,11.567 403.444,11.827 403.444 C 12.087 403.444,12.300 403.774,12.300 404.178 C 12.300 405.548,20.288 420.142,21.279 420.582 C 21.482 420.672,21.648 420.941,21.648 421.180 C 21.648 422.053,24.501 426.196,26.915 428.829 C 27.511 429.480,27.884 430.012,27.742 430.012 C 24.939 430.012,56.573 459.229,61.338 461.040 C 61.969 461.280,62.485 461.651,62.485 461.864 C 62.485 462.077,62.910 462.470,63.431 462.737 C 63.951 463.004,65.888 464.025,67.736 465.005 C 73.996 468.328,77.508 470.109,78.978 470.706 C 79.783 471.033,81.272 471.645,82.285 472.065 C 83.299 472.484,84.194 472.770,84.275 472.699 C 84.356 472.629,85.021 472.963,85.753 473.443 C 86.486 473.923,87.085 474.201,87.085 474.062 C 87.085 473.923,87.915 474.123,88.930 474.507 C 93.141 476.101,101.778 478.414,108.326 479.702 C 117.151 481.437,144.894 482.407,150.885 481.191 C 152.191 480.925,155.806 480.244,158.918 479.677 C 162.030 479.110,167.316 477.777,170.665 476.715 C 174.015 475.653,177.072 474.785,177.459 474.785 C 177.867 474.785,178.016 474.545,177.813 474.217 C 177.612 473.892,177.676 473.781,177.963 473.958 C 178.238 474.129,179.387 473.822,180.515 473.277 C 181.643 472.732,182.814 472.440,183.118 472.628 C 183.434 472.823,183.534 472.749,183.351 472.452 C 183.175 472.168,183.374 471.804,183.792 471.644 C 184.284 471.455,184.430 471.551,184.205 471.914 C 184.014 472.224,184.058 472.357,184.303 472.212 C 184.548 472.066,187.400 470.690,190.641 469.154 C 193.882 467.619,196.650 466.180,196.791 465.957 C 197.021 465.595,197.832 465.137,202.214 462.889 C 202.891 462.542,203.607 462.033,203.806 461.757 C 204.004 461.481,204.170 461.421,204.175 461.624 C 204.179 461.827,204.625 461.550,205.166 461.009 C 205.707 460.467,206.458 460.025,206.835 460.025 C 207.212 460.025,207.660 459.661,207.831 459.216 C 208.002 458.772,208.276 458.542,208.440 458.707 C 208.940 459.206,210.631 458.047,210.265 457.456 C 210.042 457.095,210.213 457.016,210.762 457.227 C 211.275 457.424,211.705 457.273,211.872 456.837 C 212.022 456.446,212.567 455.992,213.084 455.828 C 213.600 455.664,214.022 455.217,214.022 454.835 C 214.022 454.452,214.576 454.000,215.252 453.831 C 215.929 453.661,216.482 453.363,216.482 453.169 C 216.482 452.975,217.866 451.676,219.557 450.283 C 223.006 447.442,235.342 435.534,234.194 436.154 C 233.784 436.376,233.894 436.092,234.440 435.516 C 234.982 434.946,235.867 433.885,236.408 433.159 C 236.950 432.433,237.835 431.346,238.376 430.743 C 238.918 430.140,239.432 429.342,239.520 428.969 C 239.608 428.596,240.076 427.847,240.560 427.306 C 243.750 423.741,254.459 404.406,256.638 398.278 C 256.830 397.737,257.027 397.183,257.075 397.048 C 257.122 396.913,257.529 395.979,257.978 394.973 C 258.427 393.967,258.795 392.849,258.795 392.488 C 258.795 392.128,258.990 391.622,259.229 391.365 C 259.849 390.699,263.149 377.142,263.831 372.462 C 264.147 370.298,264.556 368.773,264.741 369.072 C 264.926 369.371,265.102 368.537,265.132 367.219 C 265.162 365.900,265.384 360.836,265.625 355.966 C 265.958 349.242,266.318 123.043,265.996 123.611 C 265.959 123.676,256.157 123.789,244.213 123.862 " stroke="none" fill="#000000" fill-rule="evenodd"></path></g></svg>